<?xml version="1.0" encoding="UTF-8"?>
<svg viewBox="0 0 586 427" xmlns="http://www.w3.org/2000/svg">
 <path d="m354.5 18.5l7.5-1 6 3.5q6 3.5 19.25 14.75t19 19.5 9.5 14 8.5 12 14.25 13.75 25.75 17.25 21.5 13 13.5 9 16 11.5 14.25 10.25l6.5 4.5-4.5 3q-4.5 3-10.5 1.5t-12.25-6.25-14-10.5-15.75-9.75-23.5-10-20.5-9-12.25-8.25-14-11-7-6l-0.25-0.25-0.25 0.25q-0.25 0.25-8.75-1l-8.5-1.25-2.5-4.25q-2.5-4.25-5.25-9t-6.5-9-6.75-5.5l-3-1.25 1 14.5 1 14.5 5 2.75q5 2.75 12.5 5.5l7.5 2.75 2.75 5q2.75 5 4.25 7.5l1.5 2.5 4.25 2.25q4.25 2.25 9 5.5t5 4.75l0.25 1.5-23 2.75q-23 2.75-28.5 0.75t-5.75-2.25l-0.25-0.25 1.5-5q1.5-5 4.5-8l3-3-4.25-2.25q-4.25-2.25-10.5-5l-6.25-2.75-2-6q-2-6-4.75-15.25l-2.75-9.25-2.25 1.25q-2.25 1.25-4.75 9.25t-10.5 34.5-15.25 37.75-14.5 20.5-13.5 18.5-8.5 13.5-4.25 11.25-3.75 14.75-3.25 8l-1.5 0.25-0.75-2q-0.75-2 0.75-14.5t5.25-24.25 6.5-16.5 9-14 11-16 6.75-12.25 4.75-21.75l2.75-16.25h-4q-4 0-7.75 3.25t-7.75 11.25-15 40-21.25 52.25-13.5 25.5-10.5 17.5-16.5 23.5-11.5 14-4.25 4.75-13.5 11.5-29.5 18-30 14-16.25 7.75l-4.25 2.25 1.5-3.5q1.5-3.5 4.25-7t6-5 9.5-6.25 12.25-8.25 11-6.5 14.25-9.25 18.5-13.5 15-14 9.25-11.75 8-14 15-28.5 12.25-27l1.75-7.5-1.75-1q-1.75-1-3.75-3t-9.75-9.75-12.25-9.75l-4.5-2h-7l-8.75 4.75q-8.75 4.75-15.25 16.75t-10 25.5-4 17-2 8-2.75 9.25-2.25 5-3.5 13.25-4.25 14.5-4.75 7l-3 5.5 0.5-11.5 0.5-11.5-4.25 5.25q-4.25 5.25-10.75 13.25t-8.5 10.5-9 5.25l-7 2.75 1.5-4.5q1.5-4.5 3.25-6t5.25-7 18-32.5 15.5-34-0.25-9.75l-1.25-2.75-4.25 5.75q-4.25 5.75-12.25 20.25t-28.25 51.75-24.5 43.5-8.5 12.75-7.25 8.75-14.5 11.75-13.75 10.75l-2.25 1.25 1.5-3q1.5-3 9-12.5t18.75-28.75 13.5-23.5 13.25-26.25 13-26 22.5-46.5 24.75-47.75l4.25-5.25 7.5-1 7.5-1 3.75-5.75q3.75-5.75 10.5-17.5t13.25-18.25 8.5-7.5l2-1 4.5 1.5q4.5 1.5 7.25 4.25t11 16 16.25 21.75 11 10.75l3 2.25 2.75-9q2.75-9 6.75-19t3.75-11.75l-0.25-1.75 1.25-1.25q1.25-1.25 4.75-7.25t7.75-11.25 12.25-11.25 13.25-10.25 9.75-10.75 7.25-14 4-9 7.5-8.75 8.75-9.75 6.5-5 11.5-3.5z" fill="#fff" fill-rule="evenodd" stroke="#000" stroke-width="2"/>
</svg>
